<svg xmlns="http://www.w3.org/2000/svg" width="49" height="48" viewBox="0 0 49 48">
    <g fill="none" fill-rule="evenodd">
        <path fill="#004066" d="M1 47h47V1H1z"/>
        <path stroke="#BABABA" stroke-width=".5" d="M1 47h47V1H1z"/>
        <g fill="#BABABA">
            <path d="M37.468 29.287v.115h-5.972c-2.674 0-4.847-2.108-4.937-4.727.001-.056.008-.11.008-.166 0-.054-.007-.109-.008-.164.09-2.62 2.263-4.727 4.937-4.727h5.972v2.572L43 17.596 37.468 13V15.562h-5.972A9.094 9.094 0 0 0 24.5 18.83a9.092 9.092 0 0 0-6.996-3.267h-5.972V13L6 17.596l5.532 4.594v-2.572h5.972c2.675 0 4.847 2.108 4.937 4.727-.001.055-.008.11-.008.164 0 .056.007.11.008.166-.09 2.619-2.262 4.727-4.937 4.727h-5.972V26.81L6 31.404 11.532 36v-2.542h5.972A9.092 9.092 0 0 0 24.5 30.19a9.094 9.094 0 0 0 6.996 3.267h5.972V36L43 31.404l-5.532-4.594v2.477z"/>
        </g>
    </g>
</svg>
