<svg xmlns="http://www.w3.org/2000/svg" width="49" height="49" viewBox="0 0 49 49">
    <g fill="none" fill-rule="evenodd">
        <path fill="#004066" d="M1 48h47V1H1z"/>
        <path stroke="#BABABA" stroke-width=".5" d="M1 48h47V1H1z"/>
        <path fill="#BABABA" d="M34.248 31.56l-7.06-7.06 7.06-7.06 2.103 2.102L37 12l-7.542.65 2.103 2.102-7.06 7.062-7.06-7.062 2.101-2.102L12 12l.65 7.542 2.102-2.102 7.062 7.06-7.06 7.06-2.104-2.102L12 37l7.544-.65-2.104-2.101 7.06-7.062 7.06 7.062-2.102 2.102L37 37l-.65-7.542z"/>
        <path stroke="#BABABA" stroke-width=".5" d="M34.248 31.56l-7.06-7.06 7.06-7.06 2.103 2.102L37 12l-7.542.65 2.103 2.102-7.06 7.062-7.06-7.062 2.101-2.102L12 12l.65 7.542 2.102-2.102 7.062 7.06-7.06 7.06-2.104-2.102L12 37l7.544-.65-2.104-2.101 7.06-7.062 7.06 7.062-2.102 2.102L37 37l-.65-7.542z"/>
    </g>
</svg>
