<svg xmlns="http://www.w3.org/2000/svg" width="15" height="15" viewBox="0 0 15 15">
    <g fill="#FFF" fill-rule="nonzero">
        <path d="M10.2 9.75h-.9c-.15 0-.3.15-.3.3v3.45H1.5v-12H9v3.45c0 .15.15.3.3.3h.9c.15 0 .3-.15.3-.3V.75c0-.45-.3-.75-.75-.75h-9C.3 0 0 .3 0 .75v13.5c0 .45.3.75.75.75h9c.45 0 .75-.3.75-.75v-4.2c0-.15-.15-.3-.3-.3z"/>
        <path d="M14.775 6.975l-2.25-2.25c-.3-.3-.75-.3-1.05 0-.3.3-.3.75 0 1.05l.975.975h-5.7c-.45 0-.75.3-.75.75s.3.75.75.75h5.7l-.975.975c-.3.3-.3.75 0 1.05.15.15.525.45 1.05 0l2.25-2.25c.3-.3.3-.75 0-1.05z"/>
    </g>
</svg>
