<?xml version="1.0" encoding="utf-8"?>
<!-- Generator: Adobe Illustrator 22.1.0, SVG Export Plug-In . SVG Version: 6.00 Build 0)  -->
<svg version="1.1" id="Слой_1" xmlns="http://www.w3.org/2000/svg" xmlns:xlink="http://www.w3.org/1999/xlink" x="0px" y="0px"
	 viewBox="0 0 65 25" style="enable-background:new 0 0 65 25;" xml:space="preserve">
<style type="text/css">
	.st0{fill:#015680;}
</style>
<g>
	<g>
		<path class="st0" d="M16.9,15.7c-0.1-0.1-0.3-0.1-0.4,0L16.1,16l-1-1c1.2-1.4,1.8-3.1,1.8-5c0-4.3-3.5-7.8-7.8-7.8
			S1.3,5.6,1.3,9.9s3.5,7.8,7.8,7.8c2,0,3.7-0.6,5.1-1.8l1,1l-0.3,0.3c-0.1,0.1-0.1,0.3,0,0.4l1.9,1.3l4.4,5c0.4,0.4,1,0.4,1.4,0
			l0.6-0.6c0.4-0.4,0.4-1,0-1.4l-5.1-4.5L16.9,15.7z M9.1,15.8c-3.3,0-5.9-2.7-5.9-5.9C3.2,6.6,5.8,4,9.1,4S15,6.6,15,9.9
			C15,13.2,12.4,15.8,9.1,15.8z"/>
		<path class="st0" d="M42.3,6.6c-2.9,0.2-4.8,3.1-4.2,5.9c0.5,2.1,2.2,3.5,4.6,3.5c2.8,0,4-1.6,4.3-2.4h-1.7
			c-0.2,0-0.4,0.1-0.6,0.3c-0.5,0.4-1.1,0.6-2.1,0.6c-1.7,0-2.6-1.1-2.8-2.3c0-0.2,0.1-0.3,0.3-0.3H47c0.2,0,0.4-0.2,0.4-0.4v-0.2
			C47.4,8.6,45.1,6.4,42.3,6.6z M45.1,10.6h-4.7c-0.2,0-0.4-0.2-0.3-0.4c0.2-0.9,0.9-1.9,2.6-2c1.8,0,2.5,1.2,2.7,2
			C45.5,10.4,45.3,10.6,45.1,10.6z"/>
		<path class="st0" d="M32.7,17.3c-0.2,0-0.4,0-0.6,0c-0.2,0-0.3,0-0.5,0c-0.9,0-1.5-0.1-1.9-0.8c-0.2-0.3-0.2-0.8-0.1-1.2
			c0.1-0.3,0.4-0.4,0.7-0.2c0.3,0.2,0.9,0.3,1.8,0.3c2.4,0,4.4-2,4.4-4.4c0-0.8-0.2-1.5-0.6-2.2L36,8.7l1-1l-1.4-1.3l-0.9,0.9
			l-0.2-0.1c-0.7-0.4-1.5-0.6-2.2-0.6c-2.4,0-4.4,2-4.4,4.4c0,1.2,0.4,2,0.7,2.4c0.1,0.2,0.1,0.4,0,0.5c-0.5,0.8-0.8,2.1-0.3,3
			c0.9,1.6,2.2,1.9,3.7,2c0,0,0.1,0,0.3,0c1.4,0,3.7,0.2,3.7,1.1c0,1.1-2.4,1.2-3.1,1.2c-3.5,0-3.1-1.4-2.9-1.5
			c-0.4-0.2-1.2-0.5-1.5-0.9C28.1,19,28,19.1,28,19.3l0,0l-0.1,0.1c-0.1,0.1-0.1,0.6-0.1,0.7c0,1.7,2.1,2.8,4.9,2.8
			c2.8,0,4.9-1.2,4.9-2.8C37.6,18.5,35.5,17.3,32.7,17.3z M32.2,8.2c1.6,0,2.8,1.3,2.8,2.8s-1.3,2.8-2.8,2.8c-1.6,0-2.8-1.3-2.8-2.8
			S30.6,8.2,32.2,8.2z"/>
		<path class="st0" d="M24.6,3.4c-0.7,0-1.3,0.6-1.3,1.3c0,0.7,0.6,1.3,1.3,1.3C25.4,6,26,5.4,26,4.7C26,4,25.4,3.4,24.6,3.4z"/>
		<rect x="23.6" y="7.8" class="st0" width="2.1" height="8.3"/>
		<path class="st0" d="M63.2,8.6V6.9h-2.1V3.7h-1.7v3.2h-2c0.4,0.5,0.8,1.1,1,1.7h1v6c0,0.7,0.6,1.3,1.3,1.3h0.6l0-1.8
			c0,0-0.2,0-0.2-0.3c0-0.2,0-5.3,0-5.3H63.2z"/>
		<path class="st0" d="M53,6.9c-0.3,0-2.4,0-3.7,0c-0.3,0-0.5,0.2-0.5,0.5V16h1.6l0-7.4c0-0.1,0.1-0.1,0.1-0.1H53
			c1.3,0,2.4,1.1,2.4,2.4l0,4.4c0,0.4,0.3,0.7,0.8,0.7h1c0-1.9,0-5,0-5.1C57.1,8.7,55.2,6.9,53,6.9z"/>
		<path class="st0" d="M21.1,13.6c0-3.1,0-8.1,0-8.8c0-1-0.6-1.5-0.6-1.5l-1.9,1.9c0,0,0.6,0.4,0.6,1.2V15c0,0.5,0.4,1,1,1h1.3v-1.7
			C21.4,14.2,21.1,14.2,21.1,13.6z"/>
	</g>
</g>
</svg>
