<svg xmlns="http://www.w3.org/2000/svg" xmlns:xlink="http://www.w3.org/1999/xlink" width="16" height="16" viewBox="0 0 16 16">
    <defs>
        <path id="a" d="M0 0h12.19v16H0z"/>
    </defs>
    <g fill="none" fill-rule="evenodd">
        <g transform="translate(2)">
            <mask id="b" fill="#fff">
                <use xlink:href="#a"/>
            </mask>
            <path fill="#FFF" d="M6.095 0A6.095 6.095 0 0 0 0 6.095C0 9.462 6.095 16 6.095 16s6.095-6.538 6.095-9.905A6.095 6.095 0 0 0 6.095 0m0 1a5.1 5.1 0 0 1 5.095 5.095c0 1.941-2.877 5.877-5.095 8.412C3.876 11.973 1 8.038 1 6.095A5.1 5.1 0 0 1 6.095 1" mask="url(#b)"/>
        </g>
        <path fill="#FFF" d="M8.095 3.587a2.206 2.206 0 1 0 0 4.412 2.206 2.206 0 0 0 0-4.412m0 1a1.207 1.207 0 0 1 0 2.413 1.208 1.208 0 0 1 0-2.413"/>
    </g>
</svg>
