<svg xmlns="http://www.w3.org/2000/svg" width="34" height="34" viewBox="0 0 34 34">
    <g fill="none" fill-rule="evenodd">
        <path fill="#04283C" d="M-43-24H77V80H-43z"/>
        <path fill="#FD7F00" fill-rule="nonzero" d="M17 0C7.61 0 0 7.61 0 17s7.61 17 17 17 17-7.61 17-17S26.39 0 17 0zm8.005 22.595a1.7 1.7 0 0 1 0 2.403c-.335.335-1.412.997-2.403 0L17 19.403l-5.595 5.595c-.335.335-1.352 1.05-2.403 0a1.7 1.7 0 0 1 0-2.403L14.597 17l-5.595-5.595a1.7 1.7 0 0 1 0-2.403 1.7 1.7 0 0 1 2.403 0L17 14.597l5.595-5.595a1.7 1.7 0 0 1 2.403 0 1.7 1.7 0 0 1 0 2.403L19.403 17l5.602 5.595z"/>
    </g>
</svg>
