<svg xmlns="http://www.w3.org/2000/svg" width="33" height="33" viewBox="0 0 33 33">
    <g fill="none" fill-rule="evenodd">
        <path d="M-43-24H77V80H-43z"/>
        <path fill="#FFF" fill-rule="nonzero" d="M16.5 0C7.386 0 0 7.386 0 16.5S7.386 33 16.5 33 33 25.614 33 16.5 25.614 0 16.5 0zm7.77 21.93a1.65 1.65 0 0 1 0 2.333c-.326.325-1.371.968-2.333 0l-5.437-5.43-5.43 5.43c-.326.325-1.313 1.02-2.333 0a1.65 1.65 0 0 1 0-2.332l5.43-5.431-5.43-5.43a1.65 1.65 0 0 1 0-2.333 1.65 1.65 0 0 1 2.332 0l5.431 5.43 5.43-5.43a1.65 1.65 0 0 1 2.333 0 1.65 1.65 0 0 1 0 2.332l-5.43 5.431 5.436 5.43z"/>
    </g>
</svg>
