<svg xmlns="http://www.w3.org/2000/svg" xmlns:xlink="http://www.w3.org/1999/xlink" width="40" height="40" viewBox="0 0 40 40">
    <defs>
        <path id="a" d="M.335.26h30.403V6H.335z"/>
        <path id="c" d="M.787.5h1.5v5.567h-1.5z"/>
        <path id="e" d="M.826.364h5.247v1.5H.826z"/>
        <path id="g" d="M0 .364h5.247v1.5H0z"/>
    </defs>
    <g fill="none" fill-rule="evenodd">
        <path fill="#FC3737" d="M22.947 35.26a.75.75 0 0 1-.746-.68l-.521-5.598c-.084-.896-1.025-1.597-2.143-1.597-1.118 0-2.06.701-2.144 1.597l-.521 5.597a.754.754 0 0 1-.816.678.75.75 0 0 1-.677-.816l.52-5.598c.158-1.687 1.722-2.958 3.638-2.958s3.479 1.271 3.637 2.958l.52 5.598a.75.75 0 0 1-.747.82"/>
        <g transform="translate(4 33.5)">
            <mask id="b" fill="#fff">
                <use xlink:href="#a"/>
            </mask>
            <path fill="#FFF" d="M2.46 1.76a.626.626 0 0 0-.625.625v1.49c0 .344.281.625.625.625h26.153a.626.626 0 0 0 .625-.625v-1.49a.625.625 0 0 0-.625-.625H2.46zM28.613 6H2.46A2.128 2.128 0 0 1 .335 3.875v-1.49C.335 1.213 1.289.26 2.46.26h26.153c1.172 0 2.125.953 2.125 2.125v1.49A2.127 2.127 0 0 1 28.613 6z" mask="url(#b)"/>
        </g>
        <path fill="#FFF" d="M29.652 35.26a.75.75 0 0 1-.747-.695L27.36 13.451c-.123-1.678-3.486-2.943-7.824-2.943-4.337 0-7.7 1.265-7.823 2.943l-1.545 21.114a.75.75 0 1 1-1.496-.11l1.545-21.113c.22-2.994 4.838-4.334 9.32-4.334 4.48 0 9.1 1.34 9.32 4.334L30.4 34.455a.75.75 0 0 1-.693.803c-.019.002-.037.002-.056.002"/>
        <g transform="translate(18 .5)">
            <mask id="d" fill="#fff">
                <use xlink:href="#c"/>
            </mask>
            <path fill="#FC3737" d="M1.537 6.067a.75.75 0 0 1-.75-.75V1.25a.75.75 0 0 1 1.5 0v4.067a.75.75 0 0 1-.75.75" mask="url(#d)"/>
        </g>
        <g transform="translate(31 18.5)">
            <mask id="f" fill="#fff">
                <use xlink:href="#e"/>
            </mask>
            <path fill="#FC3737" d="M5.323 1.864H1.576a.75.75 0 0 1 0-1.5h3.747a.75.75 0 0 1 0 1.5" mask="url(#f)"/>
        </g>
        <g transform="translate(2 18.5)">
            <mask id="h" fill="#fff">
                <use xlink:href="#g"/>
            </mask>
            <path fill="#FC3737" d="M4.497 1.864H.75a.75.75 0 0 1 0-1.5h3.747a.75.75 0 0 1 0 1.5" mask="url(#h)"/>
        </g>
        <path fill="#FC3737" d="M29.214 10.918a.75.75 0 0 1-.552-1.258l2.65-2.876a.752.752 0 0 1 1.06-.044.751.751 0 0 1 .043 1.06l-2.649 2.876a.751.751 0 0 1-.552.242M9.868 10.918a.751.751 0 0 1-.552-.242L6.666 7.8a.751.751 0 0 1 .044-1.06.752.752 0 0 1 1.06.044l2.65 2.876a.75.75 0 0 1-.552 1.258"/>
    </g>
</svg>
