<svg xmlns="http://www.w3.org/2000/svg" width="33" height="34" viewBox="0 0 33 34">
    <g fill="none" fill-rule="evenodd">
        <path fill="#04283C" d="M-44-23H76V81H-44z"/>
        <g fill="#FD7F00" fill-rule="nonzero">
            <path d="M11.967 24.57c.317.322.73.486 1.163.486.214 0 .427-.04.627-.125a1.666 1.666 0 0 0 1.015-1.541V1.732c0-.919-.737-1.666-1.642-1.666-.904 0-1.64.747-1.64 1.666v17.637l-2.12-2.158c-.64-.65-1.68-.65-2.32 0-.64.65-.64 1.706 0 2.355l4.917 5.005zM19.696 25.056c.904 0 1.641-.748 1.641-1.666V5.752l2.12 2.152c.64.65 1.68.65 2.32 0 .64-.65.64-1.706 0-2.355L20.858.551a1.614 1.614 0 0 0-1.79-.36 1.666 1.666 0 0 0-1.015 1.54V23.39c0 .918.737 1.666 1.642 1.666z"/>
            <path d="M31.185 18.392c-.905 0-1.641.748-1.641 1.666v9.996H3.283v-9.996c0-.918-.737-1.666-1.642-1.666-.904 0-1.641.748-1.641 1.666V31.72c0 .918.737 1.666 1.641 1.666h29.544c.905 0 1.641-.748 1.641-1.666V20.058c0-.918-.736-1.666-1.641-1.666z"/>
        </g>
    </g>
</svg>
