<svg xmlns="http://www.w3.org/2000/svg" xmlns:xlink="http://www.w3.org/1999/xlink" width="40" height="40" viewBox="0 0 40 40">
    <defs>
        <path id="a" d="M0 .767h4.92v1.5H0z"/>
        <path id="c" d="M0 .767h37.5V33H0z"/>
        <path id="e" d="M0 .04h6.777V27H0z"/>
    </defs>
    <g fill="none" fill-rule="evenodd">
        <g transform="translate(1 24.233)">
            <mask id="b" fill="#fff">
                <use xlink:href="#a"/>
            </mask>
            <path fill="#FC3737" d="M4.17 2.267H.75a.75.75 0 0 1 0-1.5h3.42a.75.75 0 0 1 0 1.5" mask="url(#b)"/>
        </g>
        <path fill="#FFF" d="M37.75 26.5h-3.42a.75.75 0 0 1 0-1.5h3.42a.75.75 0 0 1 0 1.5M30.06 16.19a.749.749 0 0 1-.53-1.28l2.418-2.419a.75.75 0 1 1 1.06 1.061L30.59 15.97a.744.744 0 0 1-.53.22M19.75 11.92a.75.75 0 0 1-.75-.75V7.75a.75.75 0 0 1 1.5 0v3.42a.75.75 0 0 1-.75.75"/>
        <path fill="#FC3737" d="M31.532 31.66a.738.738 0 0 1-.3-.063l-10.454-4.578a.75.75 0 1 1 .601-1.374l10.454 4.578a.749.749 0 0 1-.3 1.437"/>
        <path fill="#FC3737" d="M19.75 25.084a.667.667 0 1 0 0 1.335.667.667 0 0 0 0-1.335m0 2.833a2.17 2.17 0 0 1-2.167-2.167 2.17 2.17 0 0 1 2.167-2.166c1.194 0 2.166.972 2.166 2.166a2.17 2.17 0 0 1-2.166 2.167M7.022 39.228a.749.749 0 0 1-.53-1.28L8.91 35.53a.749.749 0 1 1 1.06 1.06l-2.418 2.418a.744.744 0 0 1-.53.22"/>
        <g transform="translate(1 6.233)">
            <mask id="d" fill="#fff">
                <use xlink:href="#c"/>
            </mask>
            <path fill="#FFF" d="M6.027 33a.747.747 0 0 1-.53-.219A18.627 18.627 0 0 1 0 19.517C0 9.178 8.41.767 18.75.767c10.339 0 18.75 8.411 18.75 18.75 0 5.008-1.95 9.716-5.492 13.258a.749.749 0 0 1-1.06 0l-2.42-2.418 1.062-1.06 1.877 1.876A17.126 17.126 0 0 0 36 19.517c0-9.512-7.738-17.25-17.25-17.25S1.5 10.005 1.5 19.517c0 4.61 1.796 8.944 5.057 12.202v.001a.749.749 0 0 1-.53 1.28" mask="url(#d)"/>
        </g>
        <g transform="translate(1 12.233)">
            <mask id="f" fill="#fff">
                <use xlink:href="#e"/>
            </mask>
            <path fill="#FC3737" d="M6.027 27a.747.747 0 0 1-.53-.219A18.627 18.627 0 0 1 0 13.517C0 8.509 1.95 3.801 5.492.259a.749.749 0 1 1 1.06 1.061A17.14 17.14 0 0 0 1.5 13.517c0 4.61 1.796 8.944 5.057 12.202v.001a.749.749 0 0 1-.53 1.28" mask="url(#f)"/>
        </g>
        <path fill="#FC3737" d="M9.44 16.19a.744.744 0 0 1-.53-.22l-2.418-2.418a.75.75 0 0 1 1.06-1.06L9.97 14.91a.749.749 0 0 1-.53 1.28"/>
    </g>
</svg>
