<svg xmlns="http://www.w3.org/2000/svg" xmlns:xlink="http://www.w3.org/1999/xlink" width="40" height="40" viewBox="0 0 40 40">
    <defs>
        <path id="a" d="M.337.128h20.616v25.557H.337z"/>
        <path id="c" d="M.226.667h28.333V29H.226z"/>
    </defs>
    <g fill="none" fill-rule="evenodd">
        <g transform="translate(5 1.872)">
            <mask id="b" fill="#fff">
                <use xlink:href="#a"/>
            </mask>
            <path fill="#FFF" d="M1.833 25.685l-1.496-.11L1.88 4.463c.22-2.994 4.84-4.334 9.32-4.334 4.481 0 9.1 1.34 9.32 4.334l.431 5.9-1.496.11-.431-5.901c-.123-1.678-3.486-2.943-7.823-2.943-4.338 0-7.701 1.265-7.825 2.943L1.833 25.685z" mask="url(#b)"/>
        </g>
        <path fill="#FFF" d="M14.624 32.492H3.125A2.127 2.127 0 0 1 1 30.367v-1.49c0-1.172.953-2.125 2.125-2.125h7.851v1.5H3.125a.626.626 0 0 0-.625.625v1.49c0 .345.28.625.625.625h11.499v1.5z"/>
        <path fill="#FC3737" d="M24.392 21.77a3.94 3.94 0 0 0-3.936 3.936 3.94 3.94 0 0 0 3.936 3.936 3.94 3.94 0 0 0 3.936-3.936 3.94 3.94 0 0 0-3.936-3.936m0 9.372a5.441 5.441 0 0 1-5.436-5.436 5.441 5.441 0 0 1 5.436-5.436 5.441 5.441 0 0 1 5.436 5.436 5.441 5.441 0 0 1-5.436 5.436"/>
        <g transform="translate(10 10.872)">
            <mask id="d" fill="#fff">
                <use xlink:href="#c"/>
            </mask>
            <path fill="#FC3737" d="M27.809 17.157h.01-.01zM12.72 27.5h3.343l.425-3.019a.752.752 0 0 1 .533-.616 9.349 9.349 0 0 0 1.9-.782.75.75 0 0 1 .814.057l2.43 1.832 2.365-2.364-1.831-2.43a.749.749 0 0 1-.058-.814 9.409 9.409 0 0 0 .783-1.9.75.75 0 0 1 .615-.534l3.019-.425v-3.343l-3.02-.425a.749.749 0 0 1-.614-.534 9.458 9.458 0 0 0-.783-1.9.749.749 0 0 1 .058-.813l1.83-2.43-2.363-2.365-2.431 1.831a.75.75 0 0 1-.813.058 9.344 9.344 0 0 0-1.9-.782.751.751 0 0 1-.534-.616l-.425-3.019H12.72l-.425 3.02a.751.751 0 0 1-.534.615 9.344 9.344 0 0 0-1.9.782.75.75 0 0 1-.813-.058l-2.431-1.83-2.364 2.363 1.83 2.431a.749.749 0 0 1 .059.813 9.377 9.377 0 0 0-.782 1.9.75.75 0 0 1-.616.534l-3.02.425v3.343l3.02.425a.75.75 0 0 1 .616.534c.195.671.458 1.31.782 1.9a.748.748 0 0 1-.058.813l-1.831 2.431 2.364 2.364L9.05 23.14a.75.75 0 0 1 .813-.057 9.374 9.374 0 0 0 1.9.782.752.752 0 0 1 .533.616l.425 3.02zm3.995 1.5h-4.647a.75.75 0 0 1-.742-.646l-.451-3.195a10.893 10.893 0 0 1-1.301-.536L7 26.563a.751.751 0 0 1-.982-.07l-3.286-3.286a.75.75 0 0 1-.07-.98l1.94-2.575a10.825 10.825 0 0 1-.535-1.303L.872 17.9a.75.75 0 0 1-.646-.743V12.51a.75.75 0 0 1 .646-.743l3.195-.45c.152-.449.33-.884.536-1.302l-1.94-2.574a.75.75 0 0 1 .069-.982l3.286-3.286A.752.752 0 0 1 7 3.104l2.574 1.94c.418-.205.853-.384 1.302-.536l.45-3.196a.749.749 0 0 1 .743-.645h4.647a.75.75 0 0 1 .743.645l.45 3.196c.449.152.884.331 1.302.536l2.574-1.94a.75.75 0 0 1 .982.07l3.286 3.285a.75.75 0 0 1 .069.982l-1.94 2.574c.205.417.384.852.536 1.302l3.195.45a.75.75 0 0 1 .646.743v4.647a.75.75 0 0 1-.646.743l-3.195.45c-.152.45-.331.885-.536 1.302l1.94 2.574a.75.75 0 0 1-.07.981l-3.285 3.286a.749.749 0 0 1-.982.07l-2.574-1.94c-.417.204-.853.384-1.302.536l-.45 3.195a.75.75 0 0 1-.743.646z" mask="url(#d)"/>
        </g>
    </g>
</svg>
