<svg xmlns="http://www.w3.org/2000/svg" width="26" height="33" viewBox="0 0 26 33">
    <g fill="none" fill-rule="evenodd">
        <path d="M-47-23H73V81H-47z"/>
        <path fill="#FFF" fill-rule="nonzero" d="M25.527 7.77L18.348.48A1.603 1.603 0 0 0 17.197 0H1.625C.729 0 0 .74 0 1.65v29.7C0 32.26.73 33 1.625 33h22.75c.896 0 1.625-.74 1.625-1.65V8.932c0-.435-.173-.857-.473-1.163zM21.125 29.7H4.875c-.896 0-1.625-.74-1.625-1.65 0-.91.73-1.65 1.625-1.65h16.25c.896 0 1.625.74 1.625 1.65 0 .91-.73 1.65-1.625 1.65zm0-6.6H4.875c-.896 0-1.625-.74-1.625-1.65 0-.91.73-1.65 1.625-1.65h16.25c.896 0 1.625.74 1.625 1.65 0 .91-.73 1.65-1.625 1.65zm0-6.6H4.875c-.896 0-1.625-.74-1.625-1.65 0-.91.73-1.65 1.625-1.65h16.25c.896 0 1.625.74 1.625 1.65 0 .91-.73 1.65-1.625 1.65zm1.683-6.6h-5.905a.656.656 0 0 1-.653-.663V3.242c0-.592.697-.884 1.107-.468l5.905 5.996c.416.422.121 1.13-.454 1.13z"/>
    </g>
</svg>
