<svg xmlns="http://www.w3.org/2000/svg" xmlns:xlink="http://www.w3.org/1999/xlink" width="40" height="40" viewBox="0 0 40 40">
    <defs>
        <path id="a" d="M.646.869H8.78v8.135H.646z"/>
        <path id="c" d="M0 .87h25.78V36H0z"/>
    </defs>
    <g fill="none" fill-rule="evenodd">
        <path fill="#FC3737" d="M17.3 36.337a.75.75 0 0 1-.75-.75v-5.959a.75.75 0 0 1 1.5 0v5.959a.75.75 0 0 1-.75.75"/>
        <path fill="#FFF" d="M12.12 36.342a.75.75 0 0 1-.75-.75v-8.518a.75.75 0 0 1 1.5 0v8.518a.75.75 0 0 1-.75.75M22.48 36.33a.75.75 0 0 1-.75-.75v-9.556a.75.75 0 0 1 1.5 0v9.557a.75.75 0 0 1-.75.75M27.66 36.347a.75.75 0 0 1-.75-.75v-7.635a.75.75 0 0 1 1.5 0v7.635a.75.75 0 0 1-.75.75"/>
        <g transform="translate(24 3.13)">
            <mask id="b" fill="#fff">
                <use xlink:href="#a"/>
            </mask>
            <path fill="#FFF" d="M8.03 9.004H1.396a.75.75 0 0 1-.75-.75V1.619a.75.75 0 0 1 1.5 0v5.885H8.03a.75.75 0 0 1 0 1.5" mask="url(#b)"/>
        </g>
        <g transform="translate(7 3.13)">
            <mask id="d" fill="#fff">
                <use xlink:href="#c"/>
            </mask>
            <path fill="#FFF" d="M2.75 2.37c-.689 0-1.25.56-1.25 1.25v29.63c0 .69.561 1.25 1.25 1.25h20.28c.69 0 1.25-.557 1.25-1.242V8.564L18.085 2.37H2.75zM23.03 36H2.75A2.754 2.754 0 0 1 0 33.25V3.62A2.754 2.754 0 0 1 2.75.87h15.646c.199 0 .39.078.53.22l6.635 6.633c.14.141.219.332.219.531v25.004A2.75 2.75 0 0 1 23.03 36z" mask="url(#d)"/>
        </g>
        <path fill="#FC3737" d="M21.87 10.857H11.453a.75.75 0 0 1 0-1.5H21.87a.75.75 0 0 1 0 1.5"/>
        <path fill="#FFF" d="M28.328 16.19H11.453a.75.75 0 0 1 0-1.5h16.875a.75.75 0 0 1 0 1.5M28.328 21.523H11.453a.75.75 0 0 1 0-1.5h16.875a.75.75 0 0 1 0 1.5"/>
    </g>
</svg>
