<svg xmlns="http://www.w3.org/2000/svg" width="33" height="34" viewBox="0 0 33 34">
    <g fill="none" fill-rule="evenodd">
        <path d="M-44-24H76V80H-44z"/>
        <g fill="#FFF" fill-rule="nonzero">
            <path d="M26.21 11.684h-2.58c-.62 0-.929.762-.49 1.203l4.218 3.594c.27.276.709.276.98 0l4.218-3.594c.438-.447.129-1.203-.49-1.203h-2.58C29.486 5.244 24.339 0 18.019 0c-.903 0-1.638.75-1.638 1.67 0 .92.735 1.668 1.638 1.668 4.515 0 8.19 3.746 8.19 8.346zM14.743 30.045c-4.515 0-8.19-3.746-8.19-8.346h2.58c.618 0 .928-.762.49-1.202l-4.219-3.595a.684.684 0 0 0-.98 0L.206 20.49c-.438.447-.129 1.203.49 1.203h2.58c0 6.44 5.147 11.684 11.467 11.684.903 0 1.638-.75 1.638-1.67a1.65 1.65 0 0 0-1.638-1.662zM32.104 20.03H20.315a.663.663 0 0 0-.658.67v12.02c0 .368.29.67.658.67h11.796a.667.667 0 0 0 .657-.67V20.694a.667.667 0 0 0-.664-.664zM.658 13.353h11.789a.667.667 0 0 0 .658-.67V.67c0-.368-.29-.67-.658-.67H.657A.663.663 0 0 0 0 .67v12.02c0 .368.29.663.658.663z"/>
        </g>
    </g>
</svg>
