<svg xmlns="http://www.w3.org/2000/svg" width="40" height="40" viewBox="0 0 40 40">
    <g fill="none" fill-rule="evenodd">
        <path fill="#FFF" d="M20.419 5.114a2.476 2.476 0 0 0-2.473 2.473 2.476 2.476 0 0 0 2.473 2.472 2.476 2.476 0 0 0 2.473-2.472 2.476 2.476 0 0 0-2.473-2.473m0 6.445a3.978 3.978 0 0 1-3.973-3.972 3.978 3.978 0 0 1 3.973-3.973 3.978 3.978 0 0 1 3.973 3.973 3.978 3.978 0 0 1-3.973 3.972"/>
        <path fill="#FC3737" d="M14.86 12.894a.744.744 0 0 1-.53-.22c-2.805-2.805-2.805-7.37 0-10.176a.75.75 0 0 1 1.06 1.061 5.704 5.704 0 0 0 0 8.055.749.749 0 0 1-.53 1.28M25.976 12.894a.749.749 0 0 1-.53-1.28 5.704 5.704 0 0 0 0-8.055.75.75 0 0 1 1.06-1.061c2.806 2.806 2.806 7.371 0 10.176a.744.744 0 0 1-.53.22"/>
        <path fill="#FC3737" d="M11.582 15.173a.744.744 0 0 1-.53-.22A10.35 10.35 0 0 1 8 7.587c0-2.784 1.084-5.4 3.052-7.367a.749.749 0 1 1 1.06 1.06A8.863 8.863 0 0 0 9.5 7.587c0 2.38.928 4.62 2.612 6.306a.749.749 0 0 1-.53 1.28M29.255 15.173a.749.749 0 0 1-.53-1.28c3.477-3.478 3.477-9.136 0-12.613a.749.749 0 1 1 1.06-1.06c4.062 4.06 4.062 10.67 0 14.733a.744.744 0 0 1-.53.22"/>
        <path fill="#FFF" d="M9.841 34.276a.75.75 0 0 1-.694-1.033l8.077-19.837a.75.75 0 1 1 1.39.565l-8.078 19.838a.75.75 0 0 1-.695.467M30.995 34.276a.75.75 0 0 1-.695-.467L22.222 13.97a.75.75 0 1 1 1.39-.565l8.077 19.837a.75.75 0 0 1-.694 1.033"/>
        <path fill="#FFF" d="M20.419 18.102a.742.742 0 0 1-.325-.074l-3.338-1.603a.75.75 0 0 1 .65-1.352l3.013 1.447 3.013-1.447a.75.75 0 1 1 .649 1.352l-3.338 1.603a.742.742 0 0 1-.325.074M20.419 35.897a.742.742 0 0 1-.325-.074l-9.4-4.514a.75.75 0 0 1 .65-1.352l9.075 4.358 9.074-4.358a.75.75 0 0 1 .649 1.352l-9.399 4.514a.742.742 0 0 1-.325.074M20.419 26.98a.742.742 0 0 1-.325-.075l-6.237-2.995a.75.75 0 0 1 .649-1.352l5.912 2.84 5.913-2.84a.75.75 0 0 1 .65 1.352l-6.238 2.995a.742.742 0 0 1-.325.075"/>
        <path fill="#FFF" d="M20.419 39.5a.75.75 0 0 1-.75-.75V14.943a.75.75 0 0 1 1.5 0V38.75a.75.75 0 0 1-.75.75"/>
    </g>
</svg>
