<svg xmlns="http://www.w3.org/2000/svg" width="40" height="40" viewBox="0 0 40 40">
    <g fill="none" fill-rule="nonzero">
        <path fill="#FC3737" d="M4 11.5A2.5 2.5 0 0 0 1.5 14v20A2.5 2.5 0 0 0 4 36.5h32a2.5 2.5 0 0 0 2.5-2.5V14a2.5 2.5 0 0 0-2.5-2.5H4zM4 10h32a4 4 0 0 1 4 4v20a4 4 0 0 1-4 4H4a4 4 0 0 1-4-4V14a4 4 0 0 1 4-4z"/>
        <path fill="#FFF" d="M17.829 31.25c-1.255-2.358-3.171-3.5-5.829-3.5s-4.574 1.142-5.829 3.5H17.83zm-13.525.471C5.748 28.11 8.352 26.25 12 26.25c3.648 0 6.252 1.86 7.696 5.471A.75.75 0 0 1 19 32.75H5a.75.75 0 0 1-.696-1.029zM12.5 23.5a3 3 0 1 0 0-6 3 3 0 0 0 0 6zm0 1.5a4.5 4.5 0 1 1 0-9 4.5 4.5 0 0 1 0 9zM22.5 17.25a.75.75 0 1 1 0-1.5h11a.75.75 0 1 1 0 1.5h-11zM22.5 21.25a.75.75 0 1 1 0-1.5h11a.75.75 0 1 1 0 1.5h-11zM22.5 25.25a.75.75 0 1 1 0-1.5h11a.75.75 0 1 1 0 1.5h-11z"/>
        <path fill="#FC3737" d="M25.5 29.25a.75.75 0 1 1 0-1.5h8a.75.75 0 1 1 0 1.5h-8z"/>
        <path fill="#FFF" d="M25.5 33.25a.75.75 0 1 1 0-1.5h8a.75.75 0 1 1 0 1.5h-8z"/>
    </g>
</svg>
