<svg xmlns="http://www.w3.org/2000/svg" width="40" height="40" viewBox="0 0 40 40">
    <g fill="none" fill-rule="evenodd">
        <path fill="#FFF" d="M14.261 17.622l-1.483-.223c.014-.1.39-2.49 2.412-3.783 1.102-.707 2.467-.704 4.057.01 2.566 1.147 4.442 1.076 5.566.813l.425-.099.296.32c1.134 1.222 1.194 2.761 1.196 2.826l-1.499.051c0-.009-.042-.808-.546-1.543-1.368.227-3.423.177-6.052-1-1.097-.492-1.985-.53-2.635-.115-1.437.918-1.735 2.725-1.737 2.743"/>
        <path fill="#FFF" d="M18.884 8.86c-1.085 0-2.24 1.033-2.486 2.028l-.1.405-.396.128c-3.086 1-1.679 5.823-1.664 5.872l.071.238-.085.234c-.788 2.17.525 3.764.677 3.939l.12.136.043.176c.746 3.002 2.626 5.019 4.68 5.019 2.058 0 3.943-2.017 4.692-5.02l.043-.175.12-.136c.152-.175 1.465-1.768.676-3.94l-.068-.188.035-.198c.212-1.197.72-5.248-1.67-7.114l-.612-.478.498-.595c.056-.067.105-.143.145-.224-1.124.11-3.134.24-4.349-.064a1.64 1.64 0 0 0-.37-.042m.86 19.674c-2.713 0-5.145-2.4-6.092-5.988a5.519 5.519 0 0 1-.918-5.056c-.58-2.152-.743-6.07 2.332-7.36.638-1.676 2.618-3.146 4.545-2.685 1.182.297 3.732.059 4.614-.06a.922.922 0 0 1 .72.23.948.948 0 0 1 .298.637 2.95 2.95 0 0 1-.245 1.273c2.325 2.314 2.046 6.132 1.754 7.92a5.524 5.524 0 0 1-.905 5.102c-.95 3.588-3.387 5.987-6.104 5.987"/>
        <path fill="#FFF" d="M31.899 32.968c-2.268-2.733-7.92-4.23-7.976-4.244a.751.751 0 0 1-.545-.568l-.524-2.423 1.465-.317.43 1.982c1.47.432 6.105 1.96 8.304 4.612l-1.154.958zM7.585 32.942l-1.148-.965c2.21-2.63 6.813-4.15 8.277-4.58l.429-1.981 1.466.317-.525 2.423a.751.751 0 0 1-.544.568c-.057.014-5.672 1.5-7.955 4.218"/>
        <path fill="#FC3737" d="M19.75 2.5C10.238 2.5 2.5 10.238 2.5 19.75S10.238 37 19.75 37 37 29.262 37 19.75 29.262 2.5 19.75 2.5m0 36C9.411 38.5 1 30.089 1 19.75S9.411 1 19.75 1 38.5 9.411 38.5 19.75 30.089 38.5 19.75 38.5"/>
    </g>
</svg>
