<svg xmlns="http://www.w3.org/2000/svg" width="33" height="34" viewBox="0 0 33 34">
    <g fill="none" fill-rule="evenodd">
        <path d="M-44-25H76V79H-44z"/>
        <g fill="#FFF" fill-rule="nonzero">
            <path d="M24.636 16.685V1.67C24.636.75 23.899 0 22.993 0H1.65C.737 0 .006.75.006 1.67v22.704c0 .591.705.893 1.12.473l5.256-6.296a.656.656 0 0 1 .466-.197h16.145c.906 0 1.643-.749 1.643-1.669z"/>
            <path d="M31.199 8.346h-3.285v8.346c0 2.76-2.211 5.007-4.927 5.007H8.212v3.338c0 .92.737 1.67 1.642 1.67H26c.175 0 .343.072.466.197l5.257 6.295c.414.42 1.118.125 1.118-.473V10.015c0-.927-.73-1.67-1.642-1.67z"/>
        </g>
    </g>
</svg>
