<svg xmlns="http://www.w3.org/2000/svg" width="41" height="34" viewBox="0 0 41 34">
    <g fill="none" fill-rule="evenodd">
        <path fill="#04283C" d="M-40-23H80V81H-40z"/>
        <path fill="#FD7F00" fill-rule="nonzero" d="M40.957 32.936S37.1 22.133 36.85 22.063L36.866 2c0-1.103-.92-2.001-2.05-2.001H6.144c-1.13 0-2.05.898-2.05 2.001l.016 20.077c-.234.08-4.067 10.866-4.067 10.866C-.135 33.464.26 34 .818 34h39.356c.565-.008.96-.544.783-1.064zm-15.13-2.947H15.173c-.605 0-1-.63-.726-1.166l1.25-2.395a.812.812 0 0 1 .727-.434h8.183c.306 0 .589.174.726.442l1.226 2.395c.267.536-.129 1.158-.734 1.158zm6.94-7.997H8.192V4.002h24.573v17.99z"/>
    </g>
</svg>
