<svg xmlns="http://www.w3.org/2000/svg" xmlns:xlink="http://www.w3.org/1999/xlink" width="40" height="40" viewBox="0 0 40 40">
    <defs>
        <path id="a" d="M0 .915h38.13v23H0z"/>
    </defs>
    <g fill="none" fill-rule="evenodd">
        <path fill="#FFF" d="M14.025 26H2.235c-.61 0-1.105.495-1.105 1.105V37.98c0 .61.495 1.105 1.105 1.105h11.79c.61 0 1.105-.495 1.105-1.105V27.105c0-.61-.495-1.105-1.105-1.105zM2.63 37.585h11V27.5h-11v10.085z"/>
        <path fill="#FC3737" d="M28.223 39.086a.75.75 0 0 1-.75-.75v-5.794a.75.75 0 0 1 1.5 0v5.794a.75.75 0 0 1-.75.75"/>
        <path fill="#FFF" d="M37.744 26H18.515c-.765 0-1.386.62-1.386 1.385V37.7c0 .765.621 1.385 1.386 1.385h19.23c.764 0 1.384-.62 1.384-1.385V27.385c0-.765-.62-1.385-1.385-1.385zM18.63 37.585h19V27.5h-19v10.085z"/>
        <path fill="#FC3737" d="M26.25 16.782a.762.762 0 0 1-.291-.059l-11.862-5.02-5.64 2.39c-6.55 2.771-6.547 2.77-6.885 2.18l.65-.374-.245-.708c.349-.13 7.264-3.057 11.827-4.992a.747.747 0 0 1 .585 0l11.779 4.983 11.57-7.836a.75.75 0 1 1 .842 1.243l-11.91 8.064a.745.745 0 0 1-.42.13"/>
        <g transform="translate(1 .086)">
            <mask id="b" fill="#fff">
                <use xlink:href="#a"/>
            </mask>
            <path fill="#FFF" d="M35.712.914H2.418A2.419 2.419 0 0 0 0 3.333v18.165a2.419 2.419 0 0 0 2.418 2.418h33.294a2.419 2.419 0 0 0 2.418-2.418V3.332A2.419 2.419 0 0 0 35.712.915m0 0v1.5a.92.92 0 0 1 .918.917v18.165a.92.92 0 0 1-.918.918H2.418a.92.92 0 0 1-.918-.918V3.332a.92.92 0 0 1 .918-.917h33.294v-1.5" mask="url(#b)"/>
        </g>
        <path fill="#FFF" d="M12.005 31.31h-7.75a.75.75 0 0 1 0-1.5h7.75a.75.75 0 0 1 0 1.5"/>
        <path fill="#FC3737" d="M12.005 35.275h-7.75a.75.75 0 0 1 0-1.5h7.75a.75.75 0 0 1 0 1.5"/>
        <path fill="#FFF" d="M23.255 38.833a.75.75 0 0 1-.75-.75V29.8a.75.75 0 0 1 1.5 0v8.283a.75.75 0 0 1-.75.75M33.192 39.086a.75.75 0 0 1-.75-.75v-9.293a.75.75 0 0 1 1.5 0v9.293a.75.75 0 0 1-.75.75"/>
    </g>
</svg>
