<svg xmlns="http://www.w3.org/2000/svg" width="36" height="30" viewBox="0 0 36 30">
    <g fill="none" fill-rule="evenodd">
        <path d="M-42-27H78V77H-42z"/>
        <path fill="#FFF" fill-rule="nonzero" d="M35.962 29.061s-3.387-9.531-3.606-9.594l.014-17.701C32.37.793 31.562 0 30.57 0H5.395c-.992 0-1.8.793-1.8 1.766l.014 17.715c-.206.07-3.571 9.587-3.571 9.587a.709.709 0 0 0 .68.932h34.557c.496-.007.843-.48.687-.939zm-13.285-2.6h-9.354a.71.71 0 0 1-.637-1.029l1.098-2.113a.712.712 0 0 1 .638-.383h7.185c.269 0 .517.153.637.39l1.077 2.113a.71.71 0 0 1-.644 1.022zm6.093-7.057H7.194V3.532H28.77v15.872z"/>
    </g>
</svg>
